<svg height="48pt" viewBox="0 0 48 48" width="48pt" xmlns="http://www.w3.org/2000/svg" xmlns:xlink="http://www.w3.org/1999/xlink"><linearGradient id="a" gradientTransform="matrix(22.8 0 0 12 17 18)" gradientUnits="userSpaceOnUse" x1="0" x2="1" y1=".5" y2=".5"><stop offset="0" stop-color="#757f9a"/><stop offset=".98695652174" stop-color="#d7dde8"/></linearGradient><linearGradient id="b" gradientUnits="userSpaceOnUse" x1="1.363848" x2="46.724108" y1="2.432916" y2="49.180892"><stop offset="0" stop-color="#f9d423"/><stop offset=".51562375651" stop-color="#ff4e50"/><stop offset=".99130434783" stop-color="#8a2387"/></linearGradient><g fill-rule="evenodd"><path d="m28.4 25.5 3-7.5h3.6l4.8 12h-3.6l-3-7.2-3 7.2h-3.6l-3-7.2-3 7.2h-3.6l4.8-12h3.6z" fill="url(#a)"/><path d="m35 2.07c-.166-.047-.342-.07-.524-.07h-27.238c-2.891 0-5.238 2.347-5.238 5.238v19.905c0 1.156.939 2.095 2.095 2.095 1.157 0 2.095-.939 2.095-2.095v-17.81c0-1.734 1.409-3.143 3.143-3.143h25.143c.182 0 .358-.023.524-.07.166.047.342.07.524.07h3.143c1.734 0 3.143 1.409 3.143 3.143v3.143c0 1.157.938 2.095 2.095 2.095 1.156 0 2.095-.938 2.095-2.095v-5.238c0-2.891-2.347-5.238-5.238-5.238h-5.238c-.182 0-.358.023-.524.07zm-22.524 39.74c1.157 0 2.095.938 2.095 2.095 0 1.156-.938 2.095-2.095 2.095h-5.238c-2.891 0-5.238-2.347-5.238-5.238v-5.238c0-1.157.939-2.095 2.095-2.095 1.157 0 2.095.938 2.095 2.095v3.143c0 1.734 1.409 3.143 3.143 3.143zm29.334-19.905c0-1.157.938-2.095 2.095-2.095 1.156 0 2.095.938 2.095 2.095v18.857c0 2.891-2.347 5.238-5.238 5.238h-18.857c-1.157 0-2.095-.939-2.095-2.095 0-1.157.938-2.095 2.095-2.095h16.762c1.734 0 3.143-1.409 3.143-3.143zm-33.21-3.905 4.8 12h3.6l4.8-12h-3.6l-3 7.2-3-7.2z" fill="url(#b)"/></g></svg>